<?xml version="1.0" encoding="UTF-8" standalone="no"?>
<!-- Created with Inkscape (http://www.inkscape.org/) -->

<svg
   width="205.51375mm"
   height="170.4635mm"
   viewBox="0 0 205.51375 170.4635"
   version="1.1"
   id="svg1"
   xml:space="preserve"
   xmlns="http://www.w3.org/2000/svg"
   xmlns:svg="http://www.w3.org/2000/svg"><defs
     id="defs1" /><g
     id="layer1"
     transform="translate(-278.19138,11.961428)"><g
       id="g8"
       transform="translate(28.315678,-18.247881)"><path
         style="fill:#a0b778;fill-opacity:1;stroke-width:0.264583;stroke-linecap:round;paint-order:stroke fill markers"
         d="m 263.52333,124.74546 c 11.25206,-5.18392 17.09294,-7.94493 34.92267,-23.7537 0,0 -6.7643,23.59639 -34.92267,23.7537 z"
         id="path3-9" /><path
         style="fill:#a0b778;fill-opacity:1;stroke-width:0.264583;stroke-linecap:round;paint-order:stroke fill markers"
         d="m 303.32258,105.39642 -24.22563,23.91101 c 0,0 13.05667,5.66314 24.22563,-23.91101 z"
         id="path4-7" /><path
         style="fill:#a0b778;fill-opacity:1;stroke-width:0.264583;stroke-linecap:round;paint-order:stroke fill markers"
         d="m 293.09748,135.75711 c 0,0 29.57008,-6.41287 43.57468,-37.124996 z"
         id="path5-0" /><path
         style="fill:#a0b778;fill-opacity:1;stroke-width:0.264583;stroke-linecap:round;paint-order:stroke fill markers"
         d="m 304.70335,140.09662 c 9.0028,-2.76865 26.6078,-14.33194 38.9095,-36.20813 0,0 -3.8231,35.30244 -38.9095,36.20813 z"
         id="path6-3" /><g
         id="g7"
         transform="translate(-12.013325,-4.4493795)"><path
           style="fill:#a0b778;fill-opacity:1;stroke-width:0.264583;stroke-linecap:round;paint-order:stroke fill markers"
           d="m 454.73952,129.56543 c -11.25206,-5.18392 -17.09294,-7.94493 -34.92267,-23.7537 0,0 6.7643,23.59639 34.92267,23.7537 z"
           id="path3-9-7" /><path
           style="fill:#a0b778;fill-opacity:1;stroke-width:0.264583;stroke-linecap:round;paint-order:stroke fill markers"
           d="m 414.94027,110.21639 24.22563,23.91101 c 0,0 -13.05667,5.66314 -24.22563,-23.91101 z"
           id="path4-7-0" /><path
           style="fill:#a0b778;fill-opacity:1;stroke-width:0.264583;stroke-linecap:round;paint-order:stroke fill markers"
           d="m 425.16537,140.57708 c 0,0 -29.57008,-6.41287 -43.57468,-37.125 z"
           id="path5-0-3" /><path
           style="fill:#a0b778;fill-opacity:1;stroke-width:0.264583;stroke-linecap:round;paint-order:stroke fill markers"
           d="m 413.5595,144.91659 c -9.0028,-2.76865 -26.6078,-14.33194 -38.9095,-36.20813 0,0 3.8231,35.30244 38.9095,36.20813 z"
           id="path6-3-9" /></g><path
         style="fill:#a0b778;fill-opacity:1;stroke-width:0.264583;stroke-linecap:round;paint-order:stroke fill markers"
         d="m 327.58622,143.67278 c 0,0 21.58059,-11.61349 25.13149,-34.22618 3.5509,-22.612679 0,0 0,0 0,0 9.33509,28.44199 25.7978,36.00593 16.4627,7.56395 -0.22247,0 -0.22247,0 l -14.23801,1.33482 c 0,0 -11.33732,-12.04938 -11.33732,-17.04564 0,-4.99625 0,0 0,0 0,0 -4.90292,15.71082 -10.46464,17.71305 -5.56173,2.00222 -0.44494,-0.44494 -0.44494,-0.44494 z"
         id="path7-9" /><rect
         style="fill:#a0b778;fill-opacity:1;stroke-width:0.264583;stroke-linecap:round;paint-order:stroke fill markers"
         id="rect2"
         width="68.520447"
         height="9.4549322"
         x="318.90927"
         y="147.49692" /><path
         style="fill:#a0b778;fill-opacity:1;stroke-width:0.264583;stroke-linecap:round;paint-order:stroke fill markers"
         d="m 313.57001,90.767341 -4.22691,-11.457152 12.12456,-30.144545 42.49158,-3.559505 24.47158,10.900981 9.79773,28.439914 -6.29237,9.28125 -12.3488,-8.494705 -14.5158,-14.765977 -19.3548,-2.669628 -16.4627,9.12123 z"
         id="path2" /><path
         style="fill:#2f4c2e;fill-opacity:1"
         d="m 345.0025,176.50183 c -10.5806,-0.75473 -19.36902,-3.20996 -29.76562,-8.31568 -3.05594,-1.50075 -6.62781,-3.40963 -7.9375,-4.24194 -4.69798,-2.98562 -10.79852,-7.82415 -14.19275,-11.25672 -2.86947,-2.90189 -7.01947,-7.59748 -8.63697,-9.77245 -3.13702,-4.21819 -2.73495,-3.87042 -4.87638,-4.21789 -2.17506,-0.35293 -4.56339,-0.91778 -6.22228,-1.47159 -1.67579,-0.55945 -4.73899,-2.01758 -4.4362,-2.1117 0.14552,-0.0452 3.5448,-0.13479 7.55397,-0.199 l 7.28938,-0.11675 0.9127,1.46682 c 4.46626,7.17788 12.17322,15.22805 20.62415,21.5426 5.58188,4.17079 14.34111,8.64372 21.56354,11.0115 9.2389,3.02884 19.08653,4.50584 27.78125,4.16679 14.5597,-0.56777 25.67816,-3.60588 38.06959,-10.40247 6.29162,-3.4509 12.44235,-8.17277 18.07353,-13.87492 3.85835,-3.90699 5.99689,-6.45536 8.8428,-10.53745 1.33753,-1.91852 2.33863,-3.09745 2.70092,-3.18071 0.31661,-0.0728 3.79035,-0.0728 7.71941,0 l 7.14375,0.13229 -1.5875,0.7667 c -2.48426,1.19979 -5.66625,2.18758 -8.6444,2.6835 -3.18255,0.52996 -2.85444,0.26814 -6.48401,5.17384 -2.45923,3.32386 -4.19409,5.21589 -8.95879,9.77042 -6.30581,6.02766 -10.0829,8.77079 -17.99555,13.0694 -7.98187,4.33621 -15.63495,7.12233 -24.39019,8.87931 -5.79837,1.1636 -16.1391,1.6073 -24.14685,1.0361 z m 0.26459,-8.43241 c -8.60078,-0.93827 -13.69638,-2.17432 -21.03438,-5.10232 -4.69512,-1.87344 -6.09908,-2.55881 -10.31875,-5.03724 -7.6569,-4.49731 -14.18959,-10.0313 -20.40392,-17.2846 -2.00233,-2.3371 -4.5992,-5.96536 -4.5992,-6.42583 0,-0.15812 0.25316,-0.28749 0.56257,-0.28749 0.70648,0 6.28587,-1.3532 9.09472,-2.20578 9.69513,-2.94283 17.8777,-8.4234 28.66438,-19.19902 3.96293,-3.95887 11.90685,-12.681856 13.6949,-15.037986 1.23882,-1.63239 -1.44926,3.792676 -3.17738,6.412576 -0.47994,0.7276 -1.39595,2.15478 -2.03559,3.17151 -0.63964,1.01672 -2.06112,2.98125 -3.15885,4.36562 -1.09773,1.38437 -2.36644,3.05282 -2.81934,3.70766 -2.1923,3.16981 -10.55286,11.21797 -15.56161,14.98015 -2.69063,2.02097 -4.01645,2.87019 -9.25651,5.92894 -1.01865,0.59461 -2.32834,1.37273 -2.91042,1.72915 -0.58208,0.35643 -1.50482,0.88793 -2.05052,1.18111 -1.35586,0.72846 -1.29518,1.16615 0.13229,0.95418 0.61847,-0.0918 3.20808,-0.28984 5.75469,-0.44 5.53048,-0.3261 8.13406,-0.7433 11.3386,-1.81692 5.7521,-1.92714 10.69497,-5.12552 15.42877,-9.98351 2.79672,-2.87009 3.71398,-4.01304 5.91772,-7.37373 4.23509,-6.45848 7.28749,-13.48706 9.33875,-21.503786 0.41979,-1.64063 0.84451,-3.06421 0.94382,-3.16352 0.0993,-0.0993 0.12039,0.64771 0.0469,1.66004 -0.0735,1.01234 -0.20741,2.956176 -0.29749,4.319646 -0.67485,10.21462 -5.96351,23.19136 -12.9499,31.77503 -1.37879,1.69402 -6.29472,6.59062 -8.07129,8.03954 -3.71615,3.03081 -3.8093,3.27963 -0.65865,1.7594 1.16262,-0.56098 3.30448,-1.3975 4.75969,-1.85892 5.08461,-1.61226 9.66486,-4.2137 13.82448,-7.85187 1.81136,-1.58429 1.86302,-1.54228 1.26582,1.02938 -0.55415,2.38632 -1.25853,4.32826 -2.28565,6.30146 -0.49203,0.94523 -0.94076,1.82475 -0.99717,1.95449 -0.0564,0.12973 0.18085,0.17384 0.52726,0.098 2.40198,-0.52579 3.8615,-1.13267 6.13591,-2.55132 1.42761,-0.89047 2.64568,-1.61903 2.70684,-1.61903 0.0612,0 0.74983,0.40852 1.53037,0.90783 2.38371,1.52484 7.57977,3.77364 7.92399,3.42942 0.0651,-0.0651 -0.34029,-0.97829 -0.90082,-2.02936 -0.56053,-1.05106 -1.31218,-2.82197 -1.67032,-3.93535 -0.67854,-2.10946 -1.13844,-4.72254 -0.83116,-4.72254 0.0979,0 0.50015,0.30717 0.89398,0.68261 4.03927,3.85059 9.40713,6.85824 15.77136,8.8368 1.00437,0.31224 2.53221,0.92415 3.3952,1.35978 0.86298,0.43563 1.68613,0.75304 1.82921,0.70535 0.14308,-0.0477 -1.0871,-1.23738 -2.73374,-2.64375 -6.71816,-5.73786 -11.32776,-11.63586 -15.15576,-19.39184 -3.7402,-7.57811 -5.98592,-16.66032 -5.95072,-24.066086 l 0.0114,-2.39224 0.8975,3.43958 c 1.88788,7.235076 4.41196,13.366066 7.87468,19.127576 6.89931,11.47956 16.51022,18.80716 27.3207,20.83001 1.16417,0.21784 3.72401,0.44639 5.68855,0.50789 1.96453,0.0615 4.50995,0.2475 5.65649,0.41335 1.2232,0.17693 2.18224,0.2039 2.32088,0.0653 0.13864,-0.13864 -0.41488,-0.5721 -1.33952,-1.04897 -7.25679,-3.74262 -13.05409,-7.71685 -19.47015,-13.34742 -4.12442,-3.61949 -6.55449,-6.19306 -10.24233,-10.8472 -4.98897,-6.29618 -8.15217,-11.04446 -10.37121,-15.568196 -1.05845,-2.15776 -1.08654,-2.17014 1.26805,0.55894 5.41845,6.280216 7.56998,8.616306 11.77659,12.786816 2.70769,2.68446 5.22073,5.13487 5.58453,5.44535 0.3638,0.31049 1.07818,0.94702 1.5875,1.41451 1.12603,1.03355 5.6286,4.43793 7.80521,5.90151 5.7066,3.83718 11.66061,6.27279 20.24062,8.27983 3.87608,0.90669 3.70572,0.60906 1.82397,3.18655 -3.48918,4.77926 -9.65114,11.2445 -14.25938,14.96122 -2.77029,2.23434 -7.32066,5.31101 -10.45105,7.06632 -3.66758,2.05655 -12.56461,5.78116 -16.53645,6.92275 -9.17986,2.63849 -19.55378,3.55168 -28.83959,2.53868 z M 331.84735,154.5916 c 2.12453,-0.80775 1.93572,-3.46175 -0.24628,-3.46175 -0.87565,0 -1.47901,-0.70938 -1.14082,-1.34129 0.33112,-0.61869 1.71306,-0.69993 1.93793,-0.11391 0.23791,0.61998 0.7446,0.46538 0.65033,-0.19844 -0.0718,-0.50557 -0.26954,-0.60729 -1.31167,-0.67475 -1.06514,-0.0689 -1.30088,0.0144 -1.78593,0.631 -1.0275,1.30625 -0.59051,2.13257 1.39345,2.63499 0.7958,0.20153 1.11237,0.42697 1.17163,0.83435 0.16271,1.11852 -1.81968,1.68864 -2.41256,0.69384 -0.11809,-0.19814 -0.32645,-0.29119 -0.46302,-0.20678 -0.45089,0.27867 -0.2584,0.929 0.34699,1.17233 0.78498,0.31553 1.09662,0.32062 1.85995,0.0304 z m 36.87917,-0.71335 c 0.48983,-0.74758 0.57235,-3.43178 0.13086,-4.25672 -0.39279,-0.73393 -1.11044,-0.95672 -1.99655,-0.61983 -0.8719,0.3315 -1.22083,1.2128 -1.22083,3.08345 0,1.16841 0.12052,1.57052 0.62056,2.07057 0.76344,0.76343 1.86516,0.63947 2.46596,-0.27747 z m -2.04613,-0.28206 c -0.43666,-1.14849 -0.2034,-3.81217 0.36417,-4.15862 0.38247,-0.23346 0.55507,-0.189 0.8599,0.2215 0.44681,0.60171 0.51867,3.3657 0.10748,4.13401 -0.38872,0.72634 -1.01579,0.63362 -1.33155,-0.19689 z m 17.24288,0.63397 c 1.06022,-0.71213 1.31805,-1.81575 0.6076,-2.60079 -0.35522,-0.39252 -0.39073,-0.58466 -0.15212,-0.82327 0.17119,-0.17118 0.31125,-0.46603 0.31125,-0.6552 0,-0.51375 -0.98733,-1.4023 -1.55819,-1.4023 -0.68756,0 -1.7464,0.89918 -1.50975,1.2821 0.13959,0.22586 0.3026,0.19812 0.60338,-0.10266 0.59187,-0.59187 1.26009,-0.36817 1.35546,0.45376 0.0602,0.51868 -0.061,0.74788 -0.46302,0.87546 -0.69237,0.21975 -0.70892,0.66634 -0.0247,0.66634 0.28592,0 0.637,0.21888 0.78017,0.48639 0.27649,0.51665 0.1051,1.63028 -0.25091,1.63028 -0.11665,0 -0.39309,0.0695 -0.61431,0.15435 -0.23014,0.0883 -0.60413,-0.0815 -0.87419,-0.39688 -0.54991,-0.64225 -0.88353,-0.70767 -0.88353,-0.17324 0,0.52537 0.73685,1.20952 1.30268,1.20952 0.25913,0 0.8757,-0.27174 1.37017,-0.60386 z m -58.77293,-0.38833 c -0.008,-0.66145 -0.0404,-0.6855 -0.3599,-0.26458 -0.2215,0.29179 -0.70763,0.46302 -1.3145,0.46302 -0.94713,0 -0.96302,-0.0175 -0.96302,-1.05833 0,-0.99954 0.0441,-1.05834 0.79375,-1.05834 0.43656,0 0.79375,0.11907 0.79375,0.26459 0,0.14552 0.11906,0.26458 0.26458,0.26458 0.14552,0 0.26459,-0.35719 0.26459,-0.79375 0,-0.77939 -0.33914,-1.0507 -0.66146,-0.52917 -0.0899,0.14552 -0.45415,0.26459 -0.80937,0.26459 -0.57709,0 -0.64584,-0.11266 -0.64584,-1.05834 0,-1.03023 0.0242,-1.05833 0.91289,-1.05833 0.56836,0 1.0039,0.16261 1.15402,0.43085 0.29293,0.52345 0.70834,0.0234 0.47838,-0.57581 -0.1113,-0.29004 -0.64878,-0.38421 -2.19303,-0.38421 -1.59102,0 -1.97504,0.0706 -1.72809,0.3175 0.19772,0.19772 0.3175,1.17593 0.3175,2.59292 0,1.41699 -0.11978,2.3952 -0.3175,2.59292 -0.24695,0.24694 0.16463,0.3175 1.85208,0.3175 h 2.16958 z m 15.52125,0.26459 c -0.15484,-0.53805 -0.25364,-2.40958 -0.20254,-3.83646 0.029,-0.80925 0.13463,-0.99219 0.57301,-0.99219 0.2956,0 0.611,0.19163 0.70088,0.42584 0.14997,0.39082 0.18309,0.39065 0.40289,-0.002 0.42562,-0.76055 -0.0424,-0.95291 -2.31832,-0.95291 h -2.23334 l 0.008,0.72761 c 0.008,0.67864 0.0332,0.69488 0.37689,0.24133 0.20267,-0.26744 0.58584,-0.44376 0.85149,-0.39181 0.42805,0.0837 0.483,0.38738 0.483,2.66941 v 2.57496 l 0.74543,-3.3e-4 c 0.58423,-2.6e-4 0.71662,-0.10046 0.61219,-0.46335 z m 6.32953,0.17538 c 0.27266,-0.44117 -0.34057,-0.94708 -0.70556,-0.58208 -0.30531,0.30531 -0.11423,0.86972 0.29444,0.86972 0.12835,0 0.31335,-0.12944 0.41112,-0.28764 z m 14.14096,-0.10924 c 0,-0.28663 -0.29398,-0.39687 -1.05833,-0.39687 -0.58208,0 -1.05833,-0.0693 -1.05833,-0.15391 0,-0.0847 0.42483,-0.67236 0.94406,-1.30602 1.17632,-1.43554 1.19415,-2.65621 0.0481,-3.29432 -0.65345,-0.36384 -0.80176,-0.36378 -1.45521,5.9e-4 -0.42166,0.23512 -0.76503,0.68012 -0.81661,1.05833 l -0.089,0.65262 0.56234,-0.59531 c 0.6456,-0.68346 0.66693,-0.68853 1.35287,-0.32142 0.83842,0.4487 0.60816,1.41374 -0.67886,2.84522 -0.65484,0.72834 -1.19062,1.45559 -1.19062,1.61611 0,0.18282 0.64252,0.29186 1.71979,0.29186 1.35232,0 1.71979,-0.0848 1.71979,-0.39688 z m 15.875,0.0145 c 0,-0.26758 -0.37226,-0.40659 -1.23998,-0.46302 l -1.23998,-0.0806 0.98141,-1.05834 c 1.13824,-1.22745 1.41722,-2.03318 1.01196,-2.92263 -0.61071,-1.34037 -2.96074,-1.0712 -2.94458,0.33727 0.007,0.62675 0.0552,0.67324 0.33073,0.32001 0.71663,-0.91886 2.04211,-0.65378 2.04211,0.40841 0,0.36326 -1.86872,2.8631 -2.37346,3.17505 -0.62009,0.38323 0.11382,0.66627 1.72762,0.66627 1.30972,0 1.70417,-0.0885 1.70417,-0.38238 z M 252.00146,128.88485 c -1.01864,-0.13801 -1.96944,-0.28862 -2.11288,-0.33469 -0.14344,-0.0461 0.92812,-0.77906 2.38125,-1.62887 6.22545,-3.64074 8.14555,-4.85201 11.8328,-7.46458 2.14449,-1.51947 4.44025,-3.25969 5.10168,-3.86716 l 1.20259,-1.10449 -0.67479,-2.64583 c -0.62392,-2.44635 -0.98802,-4.52568 -1.76051,-10.05417 -0.43477,-3.111486 -0.44268,-18.483496 -0.011,-21.431246 2.06093,-14.07419 7.19955,-26.96617 15.31659,-38.42692 10.26223,-14.48961 26.2619,-26.107322 43.60138,-31.659915 4.61247,-1.4770422 12.69904,-3.0966122 17.85938,-3.5768562 16.89818,-1.57262 32.2655,1.431777 47.71351,9.3282632 15.96431,8.160401 28.89364,21.368107 37.07877,37.877098 5.8517,11.80259 8.47106,22.44364 8.7975,35.7396 0.18274,7.44277 -0.49385,14.301836 -2.06795,20.964226 -0.42336,1.79191 -0.76975,3.47098 -0.76975,3.73129 0,1.10589 9.78847,7.96401 17.41794,12.20358 1.50347,0.83545 2.61436,1.59269 2.46864,1.68274 -0.55627,0.3438 -6.14206,0.81952 -9.43554,0.80359 -6.02079,-0.0291 -11.6503,-1.55785 -18.12396,-4.9217 -1.96453,-1.02081 -4.46484,-2.51675 -5.55625,-3.3243 -2.96053,-2.19056 -9.64743,-9.06849 -8.81541,-9.06725 0.11905,1.8e-4 0.57364,0.31034 1.0102,0.68925 0.43657,0.37891 1.86532,1.43651 3.175,2.35023 7.76936,5.42041 15.05449,8.45342 22.87157,9.5221 1.15233,0.15754 1.16644,0.15048 0.70903,-0.35496 -0.25669,-0.28364 -2.15499,-1.74122 -4.21844,-3.23907 -10.57208,-7.67421 -19.25272,-14.9397 -27.99543,-23.431486 -2.42194,-2.35243 -4.804,-4.48818 -5.29346,-4.74611 -1.341,-0.70666 -3.22128,-0.5835 -5.25556,0.34424 -2.86001,1.30431 -9.91907,5.8339 -10.46279,6.71367 -0.10676,0.17273 1.2896,1.740276 3.36379,3.776176 1.95047,1.91446 5.64141,5.6835 8.20209,8.37564 2.56068,2.69213 4.74069,4.81391 4.84445,4.71505 0.26091,-0.24856 -2.37622,-4.88914 -5.3594,-9.43098 -1.3691,-2.08443 -2.42607,-3.85309 -2.34881,-3.93035 0.41428,-0.41428 10.18915,9.86772 14.64308,15.40278 1.04163,1.29447 1.43622,1.77777 4.96065,6.07579 3.7724,4.60042 3.68572,4.40317 1.7349,3.94807 -4.60425,-1.0741 -8.3612,-2.88974 -12.69879,-6.13703 -3.52494,-2.6389 -5.30201,-4.28772 -15.61042,-14.48373 -11.10819,-10.987086 -12.39919,-12.218336 -17.03293,-16.244636 -3.01069,-2.61602 -5.11901,-4.25486 -12.46811,-9.6917 -2.25355,-1.66717 -6.93244,-4.6191 -7.32141,-4.6191 -1.21309,0 -16.04462,10.69444 -20.62265,14.8702 -6.43118,5.86606 -10.43138,9.713716 -17.69656,17.021766 -11.11218,11.17773 -15.39408,14.69502 -21.23428,17.44252 -1.95566,0.92003 -6.55516,2.52385 -7.23803,2.52385 -0.26007,0 -0.0539,-0.50515 0.44251,-1.084 0.96585,-1.12634 1.39964,-1.65516 3.67274,-4.47731 3.96975,-4.92861 5.6394,-6.97466 7.00805,-8.58788 0.73795,-0.86982 1.57984,-1.87625 1.87088,-2.23652 1.11661,-1.38221 9.63606,-9.80804 9.91702,-9.80804 0.35616,0 0.45287,-0.16472 -2.41945,4.12086 -1.85941,2.7743 -5.51319,8.92905 -5.51319,9.28691 0,0.56132 3.54192,-2.8864 9.40606,-9.15589 2.48531,-2.6571 4.49681,-4.66673 6.15116,-6.14543 0.7963,-0.71176 1.32011,-1.382186 1.24033,-1.587496 -0.21027,-0.54107 -5.20814,-3.92927 -8.31274,-5.63546 -1.71878,-0.94458 -3.32477,-1.62183 -4.25707,-1.79521 -2.24944,-0.41833 -3.59918,0.31422 -7.40274,4.01771 -5.36589,5.224716 -14.87853,13.785616 -16.7146,15.042306 -0.33858,0.23174 -1.7467,1.32904 -3.12915,2.43843 -3.54896,2.848 -6.51216,5.09288 -10.2219,7.74399 -3.65877,2.61468 -4.0617,3.10696 -2.39301,2.92364 2.28213,-0.25071 5.41635,-0.94183 7.72012,-1.70235 2.65271,-0.87571 9.55195,-4.19713 11.7309,-5.64748 0.77669,-0.51697 1.4659,-0.93995 1.53157,-0.93995 0.0657,0 1.25686,-0.8632 2.64706,-1.91823 1.3902,-1.05503 2.78097,-2.09682 3.09059,-2.3151 0.5512,-0.38859 0.55408,-0.38411 0.13794,0.21453 -1.03894,1.49458 -4.19111,4.98058 -5.64253,6.24011 -6.52998,5.66666 -12.60988,8.67742 -20.94045,10.36966 -2.48719,0.50524 -10.98605,0.72426 -13.72175,0.35361 z m 23.28175,-18.23515 c 0.63364,-0.43597 1.40902,-1.11931 1.72306,-1.51855 0.63918,-0.81257 0.64514,-0.68067 -0.26606,-5.89088 -0.73881,-4.224496 -1.0199,-14.253366 -0.54012,-19.270766 1.26782,-13.25857 6.61601,-27.09809 14.63125,-37.86131 4.34671,-5.83696 8.86408,-10.452878 14.91918,-15.244658 5.21289,-4.125284 13.03333,-8.480818 19.14365,-10.661906 0.80036,-0.285692 2.64583,-0.950445 4.10104,-1.477231 7.66169,-2.773528 15.54815,-3.933987 25.53355,-3.757147 8.04019,0.142391 12.90823,0.850965 19.44561,2.830434 14.04002,4.251206 25.18546,10.965669 34.50091,20.784738 5.90111,6.22015 9.95915,12.01 13.51436,19.28181 4.3487,8.8948 6.8729,18.23311 7.71495,28.54156 0.36454,4.46273 -0.0445,13.07113 -0.85068,17.902326 -0.31319,1.87687 -0.48937,3.68434 -0.39151,4.01659 0.24787,0.84159 3.04132,3.241 3.37951,2.90281 0.63525,-0.63524 1.9129,-8.37977 2.34981,-14.243386 0.39789,-5.33993 0.0423,-13.11323 -0.84361,-18.43981 -1.88841,-11.35454 -6.50809,-23.03109 -12.63068,-31.92489 -4.64884,-6.75298 -7.53912,-10.075289 -13.76617,-15.823887 -4.00999,-3.701879 -5.98528,-5.201222 -10.4873,-7.960405 -11.3382,-6.948913 -21.56525,-10.514318 -34.66042,-12.083494 -4.5145,-0.540966 -15.85681,-0.402105 -20.90208,0.2559 -8.3399,1.08769 -19.33554,4.784604 -26.94121,9.058082 -5.10928,2.870801 -8.21934,4.965193 -12.08483,8.138228 -13.65428,11.208276 -22.6095,24.635976 -27.36877,41.037456 -2.13497,7.35757 -2.80554,11.29275 -3.04756,17.88448 -0.29331,7.98844 0.0477,13.124886 1.32468,19.950936 0.51733,2.76544 0.9677,4.36562 1.22868,4.36562 0.0653,0 0.63711,-0.35669 1.27076,-0.79265 z M 391.42786,84.106374 c -0.55263,-3.32835 -2.16586,-8.35329 -3.57877,-11.14726 -5.50297,-10.88188 -15.02347,-18.17531 -27.36846,-20.96634 -3.01291,-0.68117 -11.99164,-0.68371 -15.21355,-0.004 -6.89997,1.45501 -13.36492,4.72225 -18.52968,9.36448 -2.24429,2.01723 -5.38384,5.61795 -6.64735,7.62378 -1.39287,2.21118 -3.5738,6.75708 -4.30261,8.9683 -0.82524,2.50379 -1.74164,6.85991 -1.74002,8.27118 9.9e-4,0.85148 0.16607,0.54365 1.01555,-1.89365 2.10256,-6.03261 4.59381,-9.97209 9.29991,-14.70616 3.69099,-3.71292 6.95931,-6.06448 11.15145,-8.02348 5.6552,-2.64269 11.10177,-3.86179 17.24638,-3.86024 13.33287,0.003 25.31751,6.11694 32.87379,16.76951 2.60466,3.67196 4.92424,8.54845 5.72182,12.02905 0.53614,2.33971 0.5854,0.66998 0.0715,-2.42487 z m -45.14754,-45.43902 c 3.53723,-0.38593 3.81853,-0.524443 3.59691,-1.771161 -0.24837,-1.397174 -0.56849,-1.613009 -0.83855,-0.565378 -0.21334,0.827571 -0.33618,0.913965 -1.61031,1.132546 -0.75864,0.130148 -1.43537,0.180598 -1.50386,0.112112 -0.22788,-0.227875 -0.61058,-2.699734 -0.80159,-5.17739 -0.1667,-2.162418 -0.13849,-2.447396 0.24233,-2.447396 0.23705,0 0.431,-0.187161 0.431,-0.415913 0,-0.3491 -0.2444,-0.389368 -1.52135,-0.25067 -2.83563,0.307996 -3.30519,0.544408 -2.119,1.066864 0.53782,0.236879 0.63566,0.605175 1.05165,3.958798 0.29786,2.401202 0.36825,3.788043 0.20077,3.955518 -0.34163,0.34163 -0.3278,0.68124 0.0277,0.68124 0.1571,0 1.43702,-0.12563 2.84427,-0.27917 z m 17.37646,0.0127 c 0.0906,-0.14654 -0.0274,-0.34015 -0.26212,-0.43023 -0.46709,-0.179233 -3.8493,-4.82612 -3.8251,-5.255368 0.0219,-0.388189 3.04683,-2.530103 3.89261,-2.756301 1.06102,-0.283759 0.88116,-0.663193 -0.39511,-0.833536 -1.04683,-0.139719 -1.18767,-0.07792 -2.22031,0.974265 -0.60642,0.617896 -1.62149,1.496098 -2.25571,1.95156 l -1.15312,0.828113 0.003,-0.744044 c 0.007,-1.739237 0.31355,-2.698265 0.8893,-2.780398 0.30965,-0.04417 0.56299,-0.199376 0.56299,-0.344896 0,-0.31901 -4.04445,-0.812243 -4.3108,-0.525715 -0.10291,0.110707 -0.0681,0.246452 0.0775,0.301655 0.98113,0.372191 0.99328,0.445739 0.65482,3.961372 -0.34376,3.570606 -0.5536,4.33248 -1.1933,4.33248 -0.47242,0 -0.51684,0.506018 -0.0568,0.647484 0.1819,0.05594 1.1344,0.166787 2.11667,0.246329 1.39177,0.11269 1.78594,0.066 1.78594,-0.211451 0,-0.195834 -0.25439,-0.422585 -0.56531,-0.503892 -0.47769,-0.12492 -0.5392,-0.27834 -0.39687,-0.989973 0.0926,-0.463179 0.16843,-1.258558 0.16843,-1.767509 0,-1.217993 0.32435,-0.944763 2.1134,1.780289 1.40718,2.143406 1.54844,2.238286 3.49338,2.346576 0.39159,0.0218 0.78609,-0.0803 0.87666,-0.22681 z"
         id="path1" /></g></g></svg>
